<?xml version="1.0" encoding="UTF-8" standalone="no"?>
<!-- Created with Inkscape (http://www.inkscape.org/) -->

<svg
   width="102.61829mm"
   height="102.61829mm"
   viewBox="0 0 102.61829 102.61829"
   version="1.1"
   id="svg5"
   inkscape:version="1.2 (dc2aedaf03, 2022-05-15)"
   sodipodi:docname="fiis-bg-transparent-w.svg"
   inkscape:export-filename="fiis-bg-w.png"
   inkscape:export-xdpi="96"
   inkscape:export-ydpi="96"
   xmlns:inkscape="http://www.inkscape.org/namespaces/inkscape"
   xmlns:sodipodi="http://sodipodi.sourceforge.net/DTD/sodipodi-0.dtd"
   xmlns:xlink="http://www.w3.org/1999/xlink"
   xmlns="http://www.w3.org/2000/svg"
   xmlns:svg="http://www.w3.org/2000/svg">
  <sodipodi:namedview
     id="namedview7"
     pagecolor="#ffffff"
     bordercolor="#666666"
     borderopacity="1.0"
     inkscape:showpageshadow="2"
     inkscape:pageopacity="0.0"
     inkscape:pagecheckerboard="0"
     inkscape:deskcolor="#d1d1d1"
     inkscape:document-units="mm"
     showgrid="false"
     inkscape:zoom="0.72776573"
     inkscape:cx="126.41431"
     inkscape:cy="177.25484"
     inkscape:window-width="1920"
     inkscape:window-height="996"
     inkscape:window-x="0"
     inkscape:window-y="0"
     inkscape:window-maximized="1"
     inkscape:current-layer="layer1" />
  <defs
     id="defs2">
    <linearGradient
       inkscape:collect="always"
       id="linearGradient1840">
      <stop
         style="stop-color:#583cd3;stop-opacity:1;"
         offset="0"
         id="stop1836" />
      <stop
         style="stop-color:#583cd3;stop-opacity:0;"
         offset="1"
         id="stop1838" />
    </linearGradient>
    <linearGradient
       inkscape:collect="always"
       xlink:href="#linearGradient1840"
       id="linearGradient1842"
       x1="20.310247"
       y1="58.800175"
       x2="93.435295"
       y2="58.800175"
       gradientUnits="userSpaceOnUse" />
  </defs>
  <g
     inkscape:label="Layer 1"
     inkscape:groupmode="layer"
     id="layer1"
     transform="translate(-5.6866782,-7.3640864)">
    <path
       id="rect324"
       style="opacity:1;fill:#ffffff;fill-opacity:1;stroke:none;stroke-width:0.265;stroke-dasharray:none"
       d="M 22.371965 7.4963781 C 13.201613 7.4963781 5.8189699 14.879021 5.8189699 24.049373 L 5.8189699 93.297342 C 5.8189699 102.46769 13.201613 109.85034 22.371965 109.85034 L 91.619934 109.85034 C 100.79029 109.85034 108.17293 102.46769 108.17293 93.297342 L 108.17293 24.049373 C 108.17293 14.879021 100.79029 7.4963781 91.619934 7.4963781 L 22.371965 7.4963781 z M 60.613558 18.439896 C 61.490612 18.439896 62.279391 18.532443 62.982923 18.714815 C 63.986252 18.9749 64.814529 19.419132 65.464942 20.050134 C 66.571421 21.123594 67.124789 22.84642 67.124789 25.219327 C 67.124789 27.422743 66.557419 29.146084 65.422567 30.389038 C 64.316086 31.60374 62.698514 32.211149 60.570667 32.211149 C 58.584676 32.211149 57.010148 31.617867 55.846924 30.431412 C 54.712074 29.244959 54.144702 27.507491 54.144702 25.219327 C 54.144702 23.948127 54.286804 22.889211 54.570516 22.041743 C 54.882602 21.166027 55.307872 20.473865 55.846924 19.965384 C 56.133709 19.694115 56.449908 19.462748 56.79467 19.270853 C 57.132048 19.083069 57.496794 18.933042 57.889693 18.821268 C 58.68409 18.567029 59.592193 18.439896 60.613558 18.439896 z M 81.573002 18.715332 L 84.829651 18.715332 C 85.832989 18.975416 86.661262 19.419648 87.31167 20.050651 C 88.418158 21.12411 88.971517 22.846936 88.971517 25.219844 C 88.971517 27.42326 88.404143 29.146601 87.269295 30.389554 C 86.162817 31.604256 84.54524 32.211665 82.417395 32.211665 C 80.431399 32.211665 78.85687 31.618384 77.693652 30.431929 C 76.558795 29.245475 75.991431 27.508008 75.991431 25.219844 C 75.991431 23.948643 76.133525 22.889728 76.417245 22.04226 C 76.729324 21.166544 77.154593 20.474383 77.693652 19.965901 C 77.980432 19.694632 78.296639 19.463265 78.641398 19.27137 C 78.704758 19.24638 78.767468 19.219839 78.831568 19.196439 C 78.953547 19.151939 79.076841 19.110529 79.201571 19.071899 C 79.326291 19.033269 79.452532 18.997529 79.579842 18.964929 C 79.707152 18.932329 79.835629 18.902455 79.965348 18.876045 C 80.095078 18.849635 80.226109 18.826332 80.358089 18.806282 C 80.490069 18.786222 80.622972 18.769686 80.757031 18.756156 C 80.891101 18.742616 81.026185 18.732467 81.162175 18.725667 C 81.298164 18.718827 81.435242 18.715332 81.573002 18.715332 z M 60.102995 19.370589 L 60.102995 20.598421 C 59.83375 20.6415 59.593399 20.722315 59.381592 20.840783 C 59.173376 20.955661 58.995478 21.10312 58.848291 21.282617 C 58.704693 21.458523 58.593441 21.663187 58.514461 21.896533 C 58.439069 22.126288 58.40129 22.375562 58.40129 22.644807 C 58.40129 23.05047 58.473184 23.420436 58.616781 23.7543 C 58.760379 24.084574 58.959792 24.413086 59.214677 24.73977 L 60.630611 26.564982 C 60.759848 26.726528 60.865851 26.877143 60.948421 27.01715 C 61.030989 27.157157 61.095538 27.28835 61.142208 27.410408 C 61.192468 27.532466 61.226577 27.64897 61.244527 27.760257 C 61.266067 27.867955 61.277083 27.972382 61.277083 28.0729 C 61.277083 28.331376 61.21044 28.528694 61.077612 28.665112 C 60.948375 28.797943 60.751055 28.864583 60.485401 28.864583 C 60.173076 28.864583 59.941646 28.733391 59.790869 28.471325 C 59.640086 28.20926 59.564527 27.828793 59.564527 27.329793 L 59.564527 26.887959 L 58.482422 26.887959 C 58.435749 27.081816 58.399548 27.263385 58.374418 27.432112 C 58.352878 27.597249 58.342379 27.778302 58.342379 27.975748 C 58.342379 28.201914 58.370722 28.422844 58.428162 28.63824 C 58.485601 28.853637 58.581105 29.049377 58.713932 29.225284 C 58.850349 29.40119 59.031403 29.550228 59.257568 29.672285 C 59.483734 29.794343 59.767636 29.871486 60.108679 29.903796 L 60.108679 31.212243 L 61.110169 31.212243 L 61.110169 29.860388 C 61.357874 29.810129 61.580381 29.727735 61.777828 29.612858 C 61.975274 29.49798 62.142156 29.354193 62.278573 29.181876 C 62.418581 29.009559 62.524583 28.812241 62.596383 28.589664 C 62.671775 28.367088 62.709554 28.123065 62.709554 27.857409 C 62.709554 27.645603 62.689616 27.44619 62.650126 27.259513 C 62.610636 27.069246 62.551339 26.884522 62.472359 26.705025 C 62.39697 26.525528 62.301983 26.346053 62.187105 26.166556 C 62.072228 25.98706 61.941036 25.800241 61.793848 25.606384 L 60.205314 23.549662 C 60.068896 23.370165 59.957644 23.19594 59.871485 23.027213 C 59.788911 22.854896 59.747461 22.664404 59.747461 22.456188 C 59.747461 22.212073 59.814104 22.018425 59.946932 21.874829 C 60.083349 21.72764 60.282763 21.65417 60.544828 21.65417 C 60.835613 21.65417 61.058121 21.784846 61.212488 22.046911 C 61.366859 22.305387 61.443998 22.679026 61.443998 23.167256 L 61.443998 23.608573 L 62.520935 23.608573 C 62.560424 23.407537 62.594535 23.224389 62.623255 23.059252 C 62.651975 22.890526 62.666146 22.707895 62.666146 22.510449 C 62.666146 22.305822 62.639381 22.102736 62.585531 21.9017 C 62.535272 21.697074 62.449206 21.508677 62.327149 21.33636 C 62.205091 21.160453 62.04346 21.007745 61.842424 20.878507 C 61.644977 20.749269 61.398859 20.659533 61.104484 20.609273 L 61.104484 19.370589 L 60.102995 19.370589 z M 81.938871 19.83671 L 81.938871 21.064542 C 81.669626 21.107622 81.428757 21.188437 81.216952 21.306905 C 81.008736 21.421782 80.831354 21.568725 80.684168 21.748221 C 80.540571 21.924127 80.429318 22.128792 80.350338 22.362137 C 80.274947 22.591893 80.237166 22.841684 80.237166 23.110929 C 80.237166 23.516591 80.309059 23.886041 80.452657 24.219905 C 80.596254 24.55018 80.795152 24.878691 81.050037 25.205375 L 82.466488 27.031103 C 82.595726 27.19265 82.701728 27.343264 82.784298 27.483272 C 82.866867 27.62328 82.931414 27.754472 82.978084 27.876529 C 83.028343 27.998587 83.062454 28.115091 83.080404 28.226379 C 83.101944 28.334077 83.112443 28.437986 83.112443 28.538505 C 83.112443 28.796979 83.046317 28.994816 82.913489 29.131233 C 82.784252 29.264058 82.586933 29.330187 82.321277 29.330187 C 82.008953 29.330187 81.777007 29.199511 81.626229 28.937447 C 81.475453 28.675381 81.400403 28.294398 81.400403 27.795397 L 81.400403 27.354081 L 80.317782 27.354081 C 80.271115 27.547938 80.235425 27.72899 80.210295 27.897717 C 80.188755 28.062854 80.177739 28.244423 80.177739 28.44187 C 80.177739 28.668035 80.206598 28.888965 80.264038 29.104361 C 80.321477 29.319757 80.416464 29.514982 80.549292 29.690889 C 80.685709 29.866796 80.867279 30.015832 81.093445 30.13789 C 81.319611 30.259948 81.602995 30.337091 81.944039 30.369401 L 81.944039 31.678365 L 82.945528 31.678365 L 82.945528 30.326509 C 83.193233 30.27625 83.415742 30.193857 83.613188 30.078979 C 83.810635 29.964101 83.978031 29.820314 84.114449 29.647998 C 84.254456 29.475681 84.359943 29.278361 84.431742 29.055786 C 84.507133 28.83321 84.544914 28.589185 84.544914 28.323531 C 84.544914 28.111724 84.525493 27.912311 84.486003 27.725634 C 84.446514 27.535368 84.387216 27.350643 84.308236 27.171146 C 84.232848 26.991649 84.137343 26.812175 84.022465 26.632678 C 83.907587 26.453181 83.776911 26.266362 83.629724 26.072505 L 82.041191 24.015266 C 81.904774 23.83577 81.793521 23.662061 81.707361 23.493334 C 81.624788 23.321018 81.583338 23.130526 81.583338 22.92231 C 81.583338 22.678194 81.649465 22.484548 81.782292 22.34095 C 81.91871 22.193765 82.118122 22.119775 82.380188 22.119775 C 82.670973 22.119775 82.893481 22.250967 83.047848 22.513033 C 83.202217 22.771507 83.279358 23.144629 83.279358 23.632861 L 83.279358 24.074694 L 84.356295 24.074694 C 84.395785 23.873658 84.429894 23.690511 84.458614 23.525374 C 84.487334 23.356647 84.502022 23.173499 84.502022 22.976053 C 84.502022 22.771427 84.475257 22.568858 84.421407 22.367822 C 84.371147 22.163195 84.284566 21.974798 84.162508 21.802482 C 84.04045 21.626575 83.878819 21.473865 83.677783 21.344628 C 83.480337 21.215391 83.234735 21.125654 82.940361 21.075394 L 82.940361 19.83671 L 81.938871 19.83671 z M 20.354 26.532942 L 48.144035 26.532942 L 48.144035 35.177376 L 31.376583 35.177376 L 31.376583 56.829801 L 44.526685 56.829801 L 44.526685 65.474235 L 31.376583 65.474235 L 31.376583 98.906819 L 20.354 98.906819 L 20.354 26.532942 z M 54.995813 40.558959 L 65.762598 40.558959 L 65.762598 98.906819 L 54.995813 98.906819 L 54.995813 40.558959 z M 76.842542 40.558959 L 87.609326 40.558959 L 87.609326 98.906819 L 76.842542 98.906819 L 76.842542 40.558959 z " />
  </g>
</svg>
